STARTFONT 2.1
FONT spc12x21h
SIZE 11 75 75
FONTBOUNDINGBOX 12 21 0 0

STARTPROPERTIES 9
POINT_SIZE 110
WEIGHT 10
RESOLUTION_X 75
RESOLUTION_Y 75
X_HEIGHT 21
QUAD_WIDTH 12
DEFAULT_CHAR 0
FONT_DESCENT 0
FONT_ASCENT 21
ENDPROPERTIES

CHARS 256

STARTCHAR C000
ENCODING 0
SWIDTH 1 0
DWIDTH 12 0
BBX 12 21 0 0
BITMAP
0000
0000
0000
0000
0000
0000
0000
0000
0000
0000
0000
0000
0000
0000
0000
0000
0000
0000
0000
0000
0000
ENDCHAR

STARTCHAR C001
ENCODING 1
SWIDTH 1 0
DWIDTH 12 0
BBX 12 21 0 0
BITMAP
0000
0000
0000
3FC0
4020
8010
9090
9090
8010
8010
8010
9990
8F10
8610
8010
4020
3FC0
0000
0000
0000
0000
ENDCHAR

STARTCHAR C002
ENCODING 2
SWIDTH 1 0
DWIDTH 12 0
BBX 12 21 0 0
BITMAP
0000
0000
0000
3FC0
7FE0
FFF0
EF70
EF70
FFF0
FFF0
FFF0
E670
F0F0
F9F0
FFF0
7FE0
3FC0
0000
0000
0000
0000
ENDCHAR

STARTCHAR C003
ENCODING 3
SWIDTH 1 0
DWIDTH 12 0
BBX 12 21 0 0
BITMAP
0000
0000
0000
0000
0000
3180
7FC0
7FC0
7FC0
7FC0
7FC0
3F80
3F80
1F00
0E00
0400
0000
0000
0000
0000
0000
ENDCHAR

STARTCHAR C004
ENCODING 4
SWIDTH 1 0
DWIDTH 12 0
BBX 12 21 0 0
BITMAP
0000
0000
0000
0000
0000
0400
0E00
1F00
3F80
7FC0
7FC0
3F80
1F00
0E00
0400
0000
0000
0000
0000
0000
0000
ENDCHAR

STARTCHAR C005
ENCODING 5
SWIDTH 1 0
DWIDTH 12 0
BBX 12 21 0 0
BITMAP
0000
0600
0F00
1F80
1F80
0F00
0600
76E0
FFF0
FFF0
F6F0
6660
0600
0600
0600
0F00
1F80
0000
0000
0000
0000
ENDCHAR

STARTCHAR C006
ENCODING 6
SWIDTH 1 0
DWIDTH 12 0
BBX 12 21 0 0
BITMAP
0000
0000
0000
0600
0600
0F00
1F80
3FC0
7FE0
FFF0
FFF0
76E0
0600
0600
0600
0F00
1F80
0000
0000
0000
0000
ENDCHAR

STARTCHAR C007
ENCODING 7
SWIDTH 1 0
DWIDTH 12 0
BBX 12 21 0 0
BITMAP
0000
0000
0000
0000
0000
0000
0000
0000
0600
0F00
1F80
1F80
0F00
0600
0000
0000
0000
0000
0000
0000
0000
ENDCHAR

STARTCHAR C010
ENCODING 8
SWIDTH 1 0
DWIDTH 12 0
BBX 12 21 0 0
BITMAP
FFF0
FFF0
FFF0
FFF0
FFF0
FFF0
FFF0
FFF0
F9F0
F0F0
E070
E070
F0F0
F9F0
FFF0
FFF0
FFF0
FFF0
FFF0
FFF0
FFF0
ENDCHAR

STARTCHAR C011
ENCODING 9
SWIDTH 1 0
DWIDTH 12 0
BBX 12 21 0 0
BITMAP
0000
0000
0000
0000
0000
0000
0000
0000
0E00
1100
2080
2080
2080
1100
0E00
0000
0000
0000
0000
0000
0000
ENDCHAR

STARTCHAR C012
ENCODING 10
SWIDTH 1 0
DWIDTH 12 0
BBX 12 21 0 0
BITMAP
FFF0
FFF0
FFF0
FFF0
FFF0
FFF0
E070
CF30
9F90
BFD0
BFD0
BFD0
BFD0
9F90
CF30
E070
FFF0
FFF0
FFF0
FFF0
FFF0
ENDCHAR

STARTCHAR C013
ENCODING 11
SWIDTH 1 0
DWIDTH 12 0
BBX 12 21 0 0
BITMAP
0000
0000
0000
03F0
0030
0050
0090
0110
1F10
2080
4040
4040
4040
4040
4040
2080
1F00
0000
0000
0000
0000
ENDCHAR

STARTCHAR C014
ENCODING 12
SWIDTH 1 0
DWIDTH 12 0
BBX 12 21 0 0
BITMAP
0000
0000
1F00
2080
4040
4040
4040
4040
4040
2080
1F00
0400
0400
3F80
0400
0400
0400
0000
0000
0000
0000
ENDCHAR

STARTCHAR C015
ENCODING 13
SWIDTH 1 0
DWIDTH 12 0
BBX 12 21 0 0
BITMAP
0000
0000
0000
0FE0
0820
0820
0FE0
0800
0800
0800
0800
0800
0800
3800
7800
7800
3000
0000
0000
0000
0000
ENDCHAR

STARTCHAR C016
ENCODING 14
SWIDTH 1 0
DWIDTH 12 0
BBX 12 21 0 0
BITMAP
0000
0000
0000
1FE0
1020
1020
1FE0
1020
1020
1020
1020
1020
1020
1020
70E0
F1E0
F1E0
60C0
0000
0000
0000
ENDCHAR

STARTCHAR C017
ENCODING 15
SWIDTH 1 0
DWIDTH 12 0
BBX 12 21 0 0
BITMAP
0000
0000
0000
0000
0400
0400
4440
2E80
1100
60C0
1100
2E80
4440
0400
0400
0000
0000
0000
0000
0000
0000
ENDCHAR

STARTCHAR C020
ENCODING 16
SWIDTH 1 0
DWIDTH 12 0
BBX 12 21 0 0
BITMAP
0000
0000
0000
2000
3000
3800
3C00
3E00
3F00
3F80
3F80
3F00
3E00
3C00
3800
3000
2000
0000
0000
0000
0000
ENDCHAR

STARTCHAR C021
ENCODING 17
SWIDTH 1 0
DWIDTH 12 0
BBX 12 21 0 0
BITMAP
0000
0000
0000
0040
00C0
01C0
03C0
07C0
0FC0
1FC0
1FC0
0FC0
07C0
03C0
01C0
00C0
0040
0000
0000
0000
0000
ENDCHAR

STARTCHAR C022
ENCODING 18
SWIDTH 1 0
DWIDTH 12 0
BBX 12 21 0 0
BITMAP
0000
0000
0000
0400
0E00
1F00
3F80
7FC0
0400
0400
0400
0400
7FC0
3F80
1F00
0E00
0400
0000
0000
0000
0000
ENDCHAR

STARTCHAR C023
ENCODING 19
SWIDTH 1 0
DWIDTH 12 0
BBX 12 21 0 0
BITMAP
0000
0000
0000
1080
1080
1080
1080
1080
1080
1080
1080
1080
0000
0000
0000
1080
1080
0000
0000
0000
0000
ENDCHAR

STARTCHAR C024
ENCODING 20
SWIDTH 1 0
DWIDTH 12 0
BBX 12 21 0 0
BITMAP
0000
0000
0000
1FE0
2480
4480
4480
4480
4480
2480
1C80
0480
0480
0480
0480
0480
0480
0000
0000
0000
0000
ENDCHAR

STARTCHAR C025
ENCODING 21
SWIDTH 1 0
DWIDTH 12 0
BBX 12 21 0 0
BITMAP
0000
0F80
1040
2020
2020
2000
1F80
1840
2420
2220
2220
2120
2120
10C0
0FC0
0020
2020
2020
1040
0F80
0000
ENDCHAR

STARTCHAR C026
ENCODING 22
SWIDTH 1 0
DWIDTH 12 0
BBX 12 21 0 0
BITMAP
0000
0000
0000
0000
0000
0000
0000
0000
0000
0000
0000
0000
0000
3FC0
3FC0
3FC0
3FC0
0000
0000
0000
0000
ENDCHAR

STARTCHAR C027
ENCODING 23
SWIDTH 1 0
DWIDTH 12 0
BBX 12 21 0 0
BITMAP
0000
0000
0000
0400
0E00
1F00
3F80
7FC0
0400
0400
0400
0400
7FC0
3F80
1F00
0E00
0400
0000
7FC0
0000
0000
ENDCHAR

STARTCHAR C030
ENCODING 24
SWIDTH 1 0
DWIDTH 12 0
BBX 12 21 0 0
BITMAP
0000
0000
0000
0400
0E00
1F00
3F80
7FC0
0400
0400
0400
0400
0400
0400
0400
0400
0400
0000
0000
0000
0000
ENDCHAR

STARTCHAR C031
ENCODING 25
SWIDTH 1 0
DWIDTH 12 0
BBX 12 21 0 0
BITMAP
0000
0000
0000
0400
0400
0400
0400
0400
0400
0400
0400
0400
7FC0
3F80
1F00
0E00
0400
0000
0000
0000
0000
ENDCHAR

STARTCHAR C032
ENCODING 26
SWIDTH 1 0
DWIDTH 12 0
BBX 12 21 0 0
BITMAP
0000
0000
0000
0000
0000
0200
0300
0380
03C0
7FE0
03C0
0380
0300
0200
0000
0000
0000
0000
0000
0000
0000
ENDCHAR

STARTCHAR C033
ENCODING 27
SWIDTH 1 0
DWIDTH 12 0
BBX 12 21 0 0
BITMAP
0000
0000
0000
0000
0000
0400
0C00
1C00
3C00
7FE0
3C00
1C00
0C00
0400
0000
0000
0000
0000
0000
0000
0000
ENDCHAR

STARTCHAR C034
ENCODING 28
SWIDTH 1 0
DWIDTH 12 0
BBX 12 21 0 0
BITMAP
0000
0000
0000
0000
0000
0000
0000
0000
2000
2000
2000
2000
2000
3FE0
0000
0000
0000
0000
0000
0000
0000
ENDCHAR

STARTCHAR C035
ENCODING 29
SWIDTH 1 0
DWIDTH 12 0
BBX 12 21 0 0
BITMAP
0000
0000
0000
0000
0000
0000
0000
0880
18C0
38E0
7FF0
38E0
18C0
0880
0000
0000
0000
0000
0000
0000
0000
ENDCHAR

STARTCHAR C036
ENCODING 30
SWIDTH 1 0
DWIDTH 12 0
BBX 12 21 0 0
BITMAP
0000
0000
0000
0000
0000
0200
0700
0700
0F80
0F80
1FC0
1FC0
3FE0
3FE0
7FF0
0000
0000
0000
0000
0000
0000
ENDCHAR

STARTCHAR C037
ENCODING 31
SWIDTH 1 0
DWIDTH 12 0
BBX 12 21 0 0
BITMAP
0000
0000
0000
0000
0000
7FF0
3FE0
3FE0
1FC0
1FC0
0F80
0F80
0700
0700
0200
0000
0000
0000
0000
0000
0000
ENDCHAR

STARTCHAR C040
ENCODING 32
SWIDTH 1 0
DWIDTH 12 0
BBX 12 21 0 0
BITMAP
0000
0000
0000
0000
0000
0000
0000
0000
0000
0000
0000
0000
0000
0000
0000
0000
0000
0000
0000
0000
0000
ENDCHAR

STARTCHAR !
ENCODING 33
SWIDTH 1 0
DWIDTH 12 0
BBX 12 21 0 0
BITMAP
0000
0000
0000
0400
0400
0E00
0E00
0E00
0E00
0400
0400
0400
0000
0000
0400
0400
0400
0000
0000
0000
0000
ENDCHAR

STARTCHAR "
ENCODING 34
SWIDTH 1 0
DWIDTH 12 0
BBX 12 21 0 0
BITMAP
0000
0000
30C0
30C0
30C0
1040
1040
1040
0000
0000
0000
0000
0000
0000
0000
0000
0000
0000
0000
0000
0000
ENDCHAR

STARTCHAR #
ENCODING 35
SWIDTH 1 0
DWIDTH 12 0
BBX 12 21 0 0
BITMAP
0000
0000
0000
0000
1080
1080
1080
7FE0
1080
1080
1080
1080
1080
7FE0
1080
1080
1080
0000
0000
0000
0000
ENDCHAR

STARTCHAR $
ENCODING 36
SWIDTH 1 0
DWIDTH 12 0
BBX 12 21 0 0
BITMAP
0000
0000
0200
0200
0F80
1240
2240
2200
2200
1200
0F80
0240
0220
0220
1220
1240
0F80
0200
0200
0000
0000
ENDCHAR

STARTCHAR %
ENCODING 37
SWIDTH 1 0
DWIDTH 12 0
BBX 12 21 0 0
BITMAP
0000
0000
0000
3820
4440
4440
4480
3900
0100
0200
0400
0800
09C0
1220
2220
2220
41C0
0000
0000
0000
0000
ENDCHAR

STARTCHAR &
ENCODING 38
SWIDTH 1 0
DWIDTH 12 0
BBX 12 21 0 0
BITMAP
0000
0000
0000
0E00
1100
2080
2080
2100
1200
1400
0C40
1280
2100
4100
4280
4440
3820
0000
0000
0000
0000
ENDCHAR

STARTCHAR '
ENCODING 39
SWIDTH 1 0
DWIDTH 12 0
BBX 12 21 0 0
BITMAP
0000
0000
0C00
0C00
1C00
1800
3000
2000
0000
0000
0000
0000
0000
0000
0000
0000
0000
0000
0000
0000
0000
ENDCHAR

STARTCHAR (
ENCODING 40
SWIDTH 1 0
DWIDTH 12 0
BBX 12 21 0 0
BITMAP
0000
0000
0000
0100
0200
0400
0800
1000
1000
1000
1000
1000
1000
0800
0400
0200
0100
0000
0000
0000
0000
ENDCHAR

STARTCHAR )
ENCODING 41
SWIDTH 1 0
DWIDTH 12 0
BBX 12 21 0 0
BITMAP
0000
0000
0000
0400
0200
0100
0080
0040
0040
0040
0040
0040
0040
0080
0100
0200
0400
0000
0000
0000
0000
ENDCHAR

STARTCHAR *
ENCODING 42
SWIDTH 1 0
DWIDTH 12 0
BBX 12 21 0 0
BITMAP
0000
0000
0000
0000
0E00
0E00
0E00
64C0
75C0
6EC0
0400
6EC0
75C0
64C0
0E00
0E00
0E00
0000
0000
0000
0000
ENDCHAR

STARTCHAR +
ENCODING 43
SWIDTH 1 0
DWIDTH 12 0
BBX 12 21 0 0
BITMAP
0000
0000
0000
0000
0000
0400
0400
0400
0400
0400
7FC0
0400
0400
0400
0400
0400
0000
0000
0000
0000
0000
ENDCHAR

STARTCHAR ,
ENCODING 44
SWIDTH 1 0
DWIDTH 12 0
BBX 12 21 0 0
BITMAP
0000
0000
0000
0000
0000
0000
0000
0000
0000
0000
0000
0000
0000
0600
0600
0600
0600
0C00
0000
0000
0000
ENDCHAR

STARTCHAR -
ENCODING 45
SWIDTH 1 0
DWIDTH 12 0
BBX 12 21 0 0
BITMAP
0000
0000
0000
0000
0000
0000
0000
0000
0000
0000
3FC0
0000
0000
0000
0000
0000
0000
0000
0000
0000
0000
ENDCHAR

STARTCHAR .
ENCODING 46
SWIDTH 1 0
DWIDTH 12 0
BBX 12 21 0 0
BITMAP
0000
0000
0000
0000
0000
0000
0000
0000
0000
0000
0000
0000
0000
0000
0000
0600
0600
0000
0000
0000
0000
ENDCHAR

STARTCHAR /
ENCODING 47
SWIDTH 1 0
DWIDTH 12 0
BBX 12 21 0 0
BITMAP
0000
0000
0000
0010
0030
0060
00C0
0180
0300
0600
0C00
1800
3000
6000
C000
8000
0000
0000
0000
0000
0000
ENDCHAR

STARTCHAR 0
ENCODING 48
SWIDTH 1 0
DWIDTH 12 0
BBX 12 21 0 0
BITMAP
0000
0000
0000
0F80
1040
20A0
20A0
2120
2120
2220
2220
2420
2420
2820
2820
1040
0F80
0000
0000
0000
0000
ENDCHAR

STARTCHAR 1
ENCODING 49
SWIDTH 1 0
DWIDTH 12 0
BBX 12 21 0 0
BITMAP
0000
0000
0000
0200
0600
0A00
1200
0200
0200
0200
0200
0200
0200
0200
0200
0200
3FE0
0000
0000
0000
0000
ENDCHAR

STARTCHAR 2
ENCODING 50
SWIDTH 1 0
DWIDTH 12 0
BBX 12 21 0 0
BITMAP
0000
0000
0000
0F80
1040
2020
2020
0040
0080
0100
0200
0400
0800
1000
2000
4020
FFE0
0000
0000
0000
0000
ENDCHAR

STARTCHAR 3
ENCODING 51
SWIDTH 1 0
DWIDTH 12 0
BBX 12 21 0 0
BITMAP
0000
0000
0000
0F00
1080
2040
0040
0040
0040
0F80
0040
0040
0040
0040
2040
1080
0F00
0000
0000
0000
0000
ENDCHAR

STARTCHAR 4
ENCODING 52
SWIDTH 1 0
DWIDTH 12 0
BBX 12 21 0 0
BITMAP
0000
0000
0000
0080
0180
0180
0280
0480
0880
0880
1080
3FE0
0080
0080
0080
0080
03E0
0000
0000
0000
0000
ENDCHAR

STARTCHAR 5
ENCODING 53
SWIDTH 1 0
DWIDTH 12 0
BBX 12 21 0 0
BITMAP
0000
0000
0000
3FE0
2000
2000
2000
2000
2000
3F80
0040
0020
0020
0020
2020
2040
1F80
0000
0000
0000
0000
ENDCHAR

STARTCHAR 6
ENCODING 54
SWIDTH 1 0
DWIDTH 12 0
BBX 12 21 0 0
BITMAP
0000
0000
0000
0780
0800
1000
2000
2000
2000
3F80
2040
2020
2020
2020
2020
2040
1F80
0000
0000
0000
0000
ENDCHAR

STARTCHAR 7
ENCODING 55
SWIDTH 1 0
DWIDTH 12 0
BBX 12 21 0 0
BITMAP
0000
0000
0000
7FE0
4020
4020
0040
0080
0100
0200
0400
0800
0800
0800
0800
0800
0800
0000
0000
0000
0000
ENDCHAR

STARTCHAR 8
ENCODING 56
SWIDTH 1 0
DWIDTH 12 0
BBX 12 21 0 0
BITMAP
0000
0000
0000
0F80
1040
2020
2020
2020
1040
0F80
1040
2020
2020
2020
2020
1040
0F80
0000
0000
0000
0000
ENDCHAR

STARTCHAR 9
ENCODING 57
SWIDTH 1 0
DWIDTH 12 0
BBX 12 21 0 0
BITMAP
0000
0000
0000
0F80
1040
2020
2020
2020
2020
1020
0FE0
0020
0020
0020
0040
0080
1F00
0000
0000
0000
0000
ENDCHAR

STARTCHAR :
ENCODING 58
SWIDTH 1 0
DWIDTH 12 0
BBX 12 21 0 0
BITMAP
0000
0000
0000
0000
0000
0600
0600
0600
0000
0000
0000
0000
0600
0600
0600
0000
0000
0000
0000
0000
0000
ENDCHAR

STARTCHAR ;
ENCODING 59
SWIDTH 1 0
DWIDTH 12 0
BBX 12 21 0 0
BITMAP
0000
0000
0000
0000
0000
0600
0600
0600
0000
0000
0000
0000
0600
0600
0600
0C00
1800
0000
0000
0000
0000
ENDCHAR

STARTCHAR <
ENCODING 60
SWIDTH 1 0
DWIDTH 12 0
BBX 12 21 0 0
BITMAP
0000
0000
0000
0080
0100
0200
0400
0800
1000
2000
1000
0800
0400
0200
0100
0080
0000
0000
0000
0000
0000
ENDCHAR

STARTCHAR =
ENCODING 61
SWIDTH 1 0
DWIDTH 12 0
BBX 12 21 0 0
BITMAP
0000
0000
0000
0000
0000
0000
0000
0000
3FC0
0000
0000
0000
0000
3FC0
0000
0000
0000
0000
0000
0000
0000
ENDCHAR

STARTCHAR >
ENCODING 62
SWIDTH 1 0
DWIDTH 12 0
BBX 12 21 0 0
BITMAP
0000
0000
0000
2000
1000
0800
0400
0200
0100
0080
0100
0200
0400
0800
1000
2000
0000
0000
0000
0000
0000
ENDCHAR

STARTCHAR ?
ENCODING 63
SWIDTH 1 0
DWIDTH 12 0
BBX 12 21 0 0
BITMAP
0000
0000
0000
0F80
1040
2020
2020
2020
00C0
0300
0200
0200
0200
0000
0000
0200
0200
0000
0000
0000
0000
ENDCHAR

STARTCHAR @
ENCODING 64
SWIDTH 1 0
DWIDTH 12 0
BBX 12 21 0 0
BITMAP
0000
0000
0000
1F00
2080
4040
4F40
5140
5140
5140
5140
5340
4D80
4020
2020
1040
0F80
0000
0000
0000
0000
ENDCHAR

STARTCHAR A
ENCODING 65
SWIDTH 1 0
DWIDTH 12 0
BBX 12 21 0 0
BITMAP
0000
0000
0000
0200
0500
0880
1040
2020
2020
2020
2020
3FE0
2020
2020
2020
2020
7070
0000
0000
0000
0000
ENDCHAR

STARTCHAR B
ENCODING 66
SWIDTH 1 0
DWIDTH 12 0
BBX 12 21 0 0
BITMAP
0000
0000
0000
3F80
1040
1020
1020
1020
1020
1FC0
1040
1020
1020
1020
1020
1040
3F80
0000
0000
0000
0000
ENDCHAR

STARTCHAR C
ENCODING 67
SWIDTH 1 0
DWIDTH 12 0
BBX 12 21 0 0
BITMAP
0000
0000
0000
0F80
1060
2020
4020
4000
4000
4000
4000
4000
4000
4000
2020
1040
0F80
0000
0000
0000
0000
ENDCHAR

STARTCHAR D
ENCODING 68
SWIDTH 1 0
DWIDTH 12 0
BBX 12 21 0 0
BITMAP
0000
0000
0000
3F00
1080
1040
1020
1020
1020
1020
1020
1020
1020
1020
1040
1080
3F00
0000
0000
0000
0000
ENDCHAR

STARTCHAR E
ENCODING 69
SWIDTH 1 0
DWIDTH 12 0
BBX 12 21 0 0
BITMAP
0000
0000
0000
3FE0
1020
1000
1000
1000
1080
1F80
1080
1000
1000
1000
1000
1020
3FE0
0000
0000
0000
0000
ENDCHAR

STARTCHAR F
ENCODING 70
SWIDTH 1 0
DWIDTH 12 0
BBX 12 21 0 0
BITMAP
0000
0000
0000
3FE0
1020
1000
1000
1000
1080
1F80
1080
1000
1000
1000
1000
1000
3E00
0000
0000
0000
0000
ENDCHAR

STARTCHAR G
ENCODING 71
SWIDTH 1 0
DWIDTH 12 0
BBX 12 21 0 0
BITMAP
0000
0000
0000
0780
0860
1020
2020
2000
2000
2000
2000
21F0
2020
2020
1020
0860
07A0
0000
0000
0000
0000
ENDCHAR

STARTCHAR H
ENCODING 72
SWIDTH 1 0
DWIDTH 12 0
BBX 12 21 0 0
BITMAP
0000
0000
0000
70E0
2040
2040
2040
2040
2040
3FC0
2040
2040
2040
2040
2040
2040
70E0
0000
0000
0000
0000
ENDCHAR

STARTCHAR I
ENCODING 73
SWIDTH 1 0
DWIDTH 12 0
BBX 12 21 0 0
BITMAP
0000
0000
0000
1F00
0400
0400
0400
0400
0400
0400
0400
0400
0400
0400
0400
0400
1F00
0000
0000
0000
0000
ENDCHAR

STARTCHAR J
ENCODING 74
SWIDTH 1 0
DWIDTH 12 0
BBX 12 21 0 0
BITMAP
0000
0000
0000
03E0
0080
0080
0080
0080
0080
0080
0080
0080
0080
1080
1080
1080
0F00
0000
0000
0000
0000
ENDCHAR

STARTCHAR K
ENCODING 75
SWIDTH 1 0
DWIDTH 12 0
BBX 12 21 0 0
BITMAP
0000
0000
0000
60E0
2080
2100
2200
2400
2800
3000
2800
2400
2200
2100
2080
2040
6070
0000
0000
0000
0000
ENDCHAR

STARTCHAR L
ENCODING 76
SWIDTH 1 0
DWIDTH 12 0
BBX 12 21 0 0
BITMAP
0000
0000
0000
3800
1000
1000
1000
1000
1000
1000
1000
1000
1000
1000
1020
1020
3FE0
0000
0000
0000
0000
ENDCHAR

STARTCHAR M
ENCODING 77
SWIDTH 1 0
DWIDTH 12 0
BBX 12 21 0 0
BITMAP
0000
0000
0000
7070
3060
3060
28A0
28A0
2520
2520
2220
2020
2020
2020
2020
2020
7070
0000
0000
0000
0000
ENDCHAR

STARTCHAR N
ENCODING 78
SWIDTH 1 0
DWIDTH 12 0
BBX 12 21 0 0
BITMAP
0000
0000
0000
C070
6020
6020
5020
4820
4820
4420
4220
4120
4120
40A0
4060
4060
E020
0000
0000
0000
0000
ENDCHAR

STARTCHAR O
ENCODING 79
SWIDTH 1 0
DWIDTH 12 0
BBX 12 21 0 0
BITMAP
0000
0000
0000
1F80
2040
4020
4020
4020
4020
4020
4020
4020
4020
4020
4020
2040
1F80
0000
0000
0000
0000
ENDCHAR

STARTCHAR P
ENCODING 80
SWIDTH 1 0
DWIDTH 12 0
BBX 12 21 0 0
BITMAP
0000
0000
0000
3F80
1040
1020
1020
1020
1040
1F80
1000
1000
1000
1000
1000
1000
3800
0000
0000
0000
0000
ENDCHAR

STARTCHAR Q
ENCODING 81
SWIDTH 1 0
DWIDTH 12 0
BBX 12 21 0 0
BITMAP
0000
0000
0000
1F80
2040
4020
4020
4020
4020
4020
4020
4020
4020
4020
4420
2240
1F80
0120
00C0
0000
0000
ENDCHAR

STARTCHAR R
ENCODING 82
SWIDTH 1 0
DWIDTH 12 0
BBX 12 21 0 0
BITMAP
0000
0000
0000
3F80
1040
1020
1020
1020
1020
1FC0
1100
1080
1040
1040
1040
1040
38E0
0000
0000
0000
0000
ENDCHAR

STARTCHAR S
ENCODING 83
SWIDTH 1 0
DWIDTH 12 0
BBX 12 21 0 0
BITMAP
0000
0000
0000
0F80
1060
2020
2020
2000
1000
0F00
0080
0040
0020
2020
2020
3040
0F80
0000
0000
0000
0000
ENDCHAR

STARTCHAR T
ENCODING 84
SWIDTH 1 0
DWIDTH 12 0
BBX 12 21 0 0
BITMAP
0000
0000
0000
7FC0
4440
0400
0400
0400
0400
0400
0400
0400
0400
0400
0400
0400
0E00
0000
0000
0000
0000
ENDCHAR

STARTCHAR U
ENCODING 85
SWIDTH 1 0
DWIDTH 12 0
BBX 12 21 0 0
BITMAP
0000
0000
0000
70E0
2040
2040
2040
2040
2040
2040
2040
2040
2040
2040
2040
1080
0F00
0000
0000
0000
0000
ENDCHAR

STARTCHAR V
ENCODING 86
SWIDTH 1 0
DWIDTH 12 0
BBX 12 21 0 0
BITMAP
0000
0000
0000
E0E0
4040
2080
2080
2080
1100
1100
1100
1100
0A00
0A00
0A00
0400
0400
0000
0000
0000
0000
ENDCHAR

STARTCHAR W
ENCODING 87
SWIDTH 1 0
DWIDTH 12 0
BBX 12 21 0 0
BITMAP
0000
0000
0000
E0E0
4040
4040
4040
2080
2080
2080
2E80
2480
2480
1B00
1B00
1100
1100
0000
0000
0000
0000
ENDCHAR

STARTCHAR X
ENCODING 88
SWIDTH 1 0
DWIDTH 12 0
BBX 12 21 0 0
BITMAP
0000
0000
0000
E070
2040
2040
1080
0900
0900
0600
0600
0900
0900
1080
2040
2040
E070
0000
0000
0000
0000
ENDCHAR

STARTCHAR Y
ENCODING 89
SWIDTH 1 0
DWIDTH 12 0
BBX 12 21 0 0
BITMAP
0000
0000
0000
E0E0
4040
4040
4040
2080
2080
1100
1100
0E00
0400
0400
0400
0400
0E00
0000
0000
0000
0000
ENDCHAR

STARTCHAR Z
ENCODING 90
SWIDTH 1 0
DWIDTH 12 0
BBX 12 21 0 0
BITMAP
0000
0000
0000
7FE0
4040
0040
0080
0100
0100
0200
0400
0800
0800
1000
2000
2020
7FE0
0000
0000
0000
0000
ENDCHAR

STARTCHAR [
ENCODING 91
SWIDTH 1 0
DWIDTH 12 0
BBX 12 21 0 0
BITMAP
0000
0000
0000
1F80
1000
1000
1000
1000
1000
1000
1000
1000
1000
1000
1000
1000
1F80
0000
0000
0000
0000
ENDCHAR

STARTCHAR \
ENCODING 92
SWIDTH 1 0
DWIDTH 12 0
BBX 12 21 0 0
BITMAP
0000
0000
0000
8000
4000
2000
1000
1000
0800
0400
0200
0100
0080
0080
0040
0020
0010
0000
0000
0000
0000
ENDCHAR

STARTCHAR ]
ENCODING 93
SWIDTH 1 0
DWIDTH 12 0
BBX 12 21 0 0
BITMAP
0000
0000
0000
1F80
0080
0080
0080
0080
0080
0080
0080
0080
0080
0080
0080
0080
1F80
0000
0000
0000
0000
ENDCHAR

STARTCHAR ^
ENCODING 94
SWIDTH 1 0
DWIDTH 12 0
BBX 12 21 0 0
BITMAP
0000
0200
0500
0880
1040
2020
0000
0000
0000
0000
0000
0000
0000
0000
0000
0000
0000
0000
0000
0000
0000
ENDCHAR

STARTCHAR _
ENCODING 95
SWIDTH 1 0
DWIDTH 12 0
BBX 12 21 0 0
BITMAP
0000
0000
0000
0000
0000
0000
0000
0000
0000
0000
0000
0000
0000
0000
0000
0000
0000
0000
FFF0
0000
0000
ENDCHAR

STARTCHAR `
ENCODING 96
SWIDTH 1 0
DWIDTH 12 0
BBX 12 21 0 0
BITMAP
0000
0400
0600
0200
0380
0180
0000
0000
0000
0000
0000
0000
0000
0000
0000
0000
0000
0000
0000
0000
0000
ENDCHAR

STARTCHAR a
ENCODING 97
SWIDTH 1 0
DWIDTH 12 0
BBX 12 21 0 0
BITMAP
0000
0000
0000
0000
0000
0000
0000
0000
1F80
2040
0040
1FC0
2040
2040
2040
20C0
1F60
0000
0000
0000
0000
ENDCHAR

STARTCHAR b
ENCODING 98
SWIDTH 1 0
DWIDTH 12 0
BBX 12 21 0 0
BITMAP
0000
0000
0000
3000
1000
1000
1000
1000
1F80
1040
1040
1020
1020
1020
1020
1040
3F80
0000
0000
0000
0000
ENDCHAR

STARTCHAR c
ENCODING 99
SWIDTH 1 0
DWIDTH 12 0
BBX 12 21 0 0
BITMAP
0000
0000
0000
0000
0000
0000
0000
0000
0F00
1080
2040
2000
2000
2000
2040
1080
0F00
0000
0000
0000
0000
ENDCHAR

STARTCHAR d
ENCODING 100
SWIDTH 1 0
DWIDTH 12 0
BBX 12 21 0 0
BITMAP
0000
0000
0000
0180
0080
0080
0080
0080
0F80
1080
2080
2080
2080
2080
2080
2080
1FC0
0000
0000
0000
0000
ENDCHAR

STARTCHAR e
ENCODING 101
SWIDTH 1 0
DWIDTH 12 0
BBX 12 21 0 0
BITMAP
0000
0000
0000
0000
0000
0000
0000
0000
1FC0
2020
2020
2020
3FC0
2000
2000
2020
1FC0
0000
0000
0000
0000
ENDCHAR

STARTCHAR f
ENCODING 102
SWIDTH 1 0
DWIDTH 12 0
BBX 12 21 0 0
BITMAP
0000
0000
0000
0300
0480
0840
0840
0800
0800
3F00
0800
0800
0800
0800
0800
0800
1C00
0000
0000
0000
0000
ENDCHAR

STARTCHAR g
ENCODING 103
SWIDTH 1 0
DWIDTH 12 0
BBX 12 21 0 0
BITMAP
0000
0000
0000
0000
0000
0000
0000
0000
1FC0
2080
2080
2080
2080
2080
1F80
0080
0080
2080
1080
0F00
0000
ENDCHAR

STARTCHAR h
ENCODING 104
SWIDTH 1 0
DWIDTH 12 0
BBX 12 21 0 0
BITMAP
0000
0000
0000
1800
0800
0800
0800
0800
0BC0
0C20
0820
0820
0820
0820
0820
0820
1860
0000
0000
0000
0000
ENDCHAR

STARTCHAR i
ENCODING 105
SWIDTH 1 0
DWIDTH 12 0
BBX 12 21 0 0
BITMAP
0000
0000
0000
0000
0600
0600
0000
0000
0600
0200
0200
0200
0200
0200
0200
0200
0700
0000
0000
0000
0000
ENDCHAR

STARTCHAR j
ENCODING 106
SWIDTH 1 0
DWIDTH 12 0
BBX 12 21 0 0
BITMAP
0000
0000
0000
0000
00C0
00C0
0000
0000
01C0
0080
0080
0080
0080
0080
0080
0080
0080
1080
1080
0F00
0000
ENDCHAR

STARTCHAR k
ENCODING 107
SWIDTH 1 0
DWIDTH 12 0
BBX 12 21 0 0
BITMAP
0000
0000
0000
3000
1000
1000
1000
1060
1040
1080
1100
1F00
1100
1080
1040
1020
3030
0000
0000
0000
0000
ENDCHAR

STARTCHAR l
ENCODING 108
SWIDTH 1 0
DWIDTH 12 0
BBX 12 21 0 0
BITMAP
0000
0000
0000
0300
0100
0100
0100
0100
0100
0100
0100
0100
0100
0100
0100
0100
0380
0000
0000
0000
0000
ENDCHAR

STARTCHAR m
ENCODING 109
SWIDTH 1 0
DWIDTH 12 0
BBX 12 21 0 0
BITMAP
0000
0000
0000
0000
0000
0000
0000
0000
7DC0
2220
2220
2220
2220
2220
2220
2220
6660
0000
0000
0000
0000
ENDCHAR

STARTCHAR n
ENCODING 110
SWIDTH 1 0
DWIDTH 12 0
BBX 12 21 0 0
BITMAP
0000
0000
0000
0000
0000
0000
0000
0000
2F80
1040
1040
1040
1040
1040
1040
1040
30C0
0000
0000
0000
0000
ENDCHAR

STARTCHAR o
ENCODING 111
SWIDTH 1 0
DWIDTH 12 0
BBX 12 21 0 0
BITMAP
0000
0000
0000
0000
0000
0000
0000
0000
0F80
1040
2020
2020
2020
2020
2020
1040
0F80
0000
0000
0000
0000
ENDCHAR

STARTCHAR p
ENCODING 112
SWIDTH 1 0
DWIDTH 12 0
BBX 12 21 0 0
BITMAP
0000
0000
0000
0000
0000
0000
0000
0000
17C0
0820
0820
0820
0820
0820
0FC0
0800
0800
0800
0800
1C00
0000
ENDCHAR

STARTCHAR q
ENCODING 113
SWIDTH 1 0
DWIDTH 12 0
BBX 12 21 0 0
BITMAP
0000
0000
0000
0000
0000
0000
0000
0000
1FC0
2080
2080
2080
2080
2080
1F80
0080
0080
0080
0080
01C0
0000
ENDCHAR

STARTCHAR r
ENCODING 114
SWIDTH 1 0
DWIDTH 12 0
BBX 12 21 0 0
BITMAP
0000
0000
0000
0000
0000
0000
0000
0000
1FC0
0820
0820
0800
0800
0800
0800
0800
1C00
0000
0000
0000
0000
ENDCHAR

STARTCHAR s
ENCODING 115
SWIDTH 1 0
DWIDTH 12 0
BBX 12 21 0 0
BITMAP
0000
0000
0000
0000
0000
0000
0000
0000
1FE0
2020
2020
1000
0F80
0040
2020
2020
3FC0
0000
0000
0000
0000
ENDCHAR

STARTCHAR t
ENCODING 116
SWIDTH 1 0
DWIDTH 12 0
BBX 12 21 0 0
BITMAP
0000
0000
0000
0C00
0400
0400
0400
0400
3F80
0400
0400
0400
0400
0400
0440
0440
0380
0000
0000
0000
0000
ENDCHAR

STARTCHAR u
ENCODING 117
SWIDTH 1 0
DWIDTH 12 0
BBX 12 21 0 0
BITMAP
0000
0000
0000
0000
0000
0000
0000
0000
6180
2080
2080
2080
2080
2080
2080
20C0
1FC0
0000
0000
0000
0000
ENDCHAR

STARTCHAR v
ENCODING 118
SWIDTH 1 0
DWIDTH 12 0
BBX 12 21 0 0
BITMAP
0000
0000
0000
0000
0000
0000
0000
0000
6060
2020
1040
1040
0880
0880
0500
0500
0200
0000
0000
0000
0000
ENDCHAR

STARTCHAR w
ENCODING 119
SWIDTH 1 0
DWIDTH 12 0
BBX 12 21 0 0
BITMAP
0000
0000
0000
0000
0000
0000
0000
0000
6060
2020
2020
2020
1640
1240
1540
0880
0880
0000
0000
0000
0000
ENDCHAR

STARTCHAR x
ENCODING 120
SWIDTH 1 0
DWIDTH 12 0
BBX 12 21 0 0
BITMAP
0000
0000
0000
0000
0000
0000
0000
0000
6060
1040
0880
0500
0200
0500
0880
1040
6060
0000
0000
0000
0000
ENDCHAR

STARTCHAR y
ENCODING 121
SWIDTH 1 0
DWIDTH 12 0
BBX 12 21 0 0
BITMAP
0000
0000
0000
0000
0000
0000
0000
0000
60C0
2040
2040
2040
2040
20C0
1F40
0040
0040
0040
2040
1F80
0000
ENDCHAR

STARTCHAR z
ENCODING 122
SWIDTH 1 0
DWIDTH 12 0
BBX 12 21 0 0
BITMAP
0000
0000
0000
0000
0000
0000
0000
0000
3FE0
2040
0080
0100
0200
0400
0800
1020
3FE0
0000
0000
0000
0000
ENDCHAR

STARTCHAR {
ENCODING 123
SWIDTH 1 0
DWIDTH 12 0
BBX 12 21 0 0
BITMAP
0000
0000
0000
03C0
0400
0400
0400
0400
0400
0400
1800
0400
0400
0400
0400
0400
03C0
0000
0000
0000
0000
ENDCHAR

STARTCHAR |
ENCODING 124
SWIDTH 1 0
DWIDTH 12 0
BBX 12 21 0 0
BITMAP
0000
0000
0000
0200
0200
0200
0200
0200
0200
0000
0000
0200
0200
0200
0200
0200
0200
0000
0000
0000
0000
ENDCHAR

STARTCHAR }
ENCODING 125
SWIDTH 1 0
DWIDTH 12 0
BBX 12 21 0 0
BITMAP
0000
0000
0000
3C00
0200
0200
0200
0200
0200
0200
0180
0200
0200
0200
0200
0200
3C00
0000
0000
0000
0000
ENDCHAR

STARTCHAR ~
ENCODING 126
SWIDTH 1 0
DWIDTH 12 0
BBX 12 21 0 0
BITMAP
0000
0000
0000
0C20
1240
2180
0000
0000
0000
0000
0000
0000
0000
0000
0000
0000
0000
0000
0000
0000
0000
ENDCHAR

STARTCHAR C177
ENCODING 127
SWIDTH 1 0
DWIDTH 12 0
BBX 12 21 0 0
BITMAP
0000
0000
0000
0000
0000
0000
0000
0200
0500
0880
1040
2020
2020
2020
3FE0
0000
0000
0000
0000
0000
0000
ENDCHAR

STARTCHAR C200
ENCODING 128
SWIDTH 1 0
DWIDTH 12 0
BBX 12 21 0 0
BITMAP
0000
0000
0000
0F80
1060
2020
4020
4000
4000
4000
4000
4000
4000
4000
2020
1040
0F80
0200
0100
0700
0000
ENDCHAR

STARTCHAR C201
ENCODING 129
SWIDTH 1 0
DWIDTH 12 0
BBX 12 21 0 0
BITMAP
0000
0000
0000
0000
0000
1080
0000
0000
6180
2080
2080
2080
2080
2080
2080
20C0
1FC0
0000
0000
0000
0000
ENDCHAR

STARTCHAR C202
ENCODING 130
SWIDTH 1 0
DWIDTH 12 0
BBX 12 21 0 0
BITMAP
0000
0000
0000
0300
0200
0400
0000
0000
1FC0
2020
2020
2020
3FC0
2000
2000
2020
1FC0
0000
0000
0000
0000
ENDCHAR

STARTCHAR C203
ENCODING 131
SWIDTH 1 0
DWIDTH 12 0
BBX 12 21 0 0
BITMAP
0000
0000
0000
0200
0500
0880
1040
0000
1F80
2040
0040
1FC0
2040
2040
2040
20C0
1F60
0000
0000
0000
0000
ENDCHAR

STARTCHAR C204
ENCODING 132
SWIDTH 1 0
DWIDTH 12 0
BBX 12 21 0 0
BITMAP
0000
0000
0000
0000
0000
1080
0000
0000
1F80
2040
0040
1FC0
2040
2040
2040
20C0
1F60
0000
0000
0000
0000
ENDCHAR

STARTCHAR C205
ENCODING 133
SWIDTH 1 0
DWIDTH 12 0
BBX 12 21 0 0
BITMAP
0000
0000
0000
0C00
0400
0200
0000
0000
1F80
2040
0040
1FC0
2040
2040
2040
20C0
1F60
0000
0000
0000
0000
ENDCHAR

STARTCHAR C206
ENCODING 134
SWIDTH 1 0
DWIDTH 12 0
BBX 12 21 0 0
BITMAP
0000
0000
0000
0200
0500
0200
0000
0000
1F80
2040
0040
1FC0
2040
2040
2040
20C0
1F60
0000
0000
0000
0000
ENDCHAR

STARTCHAR C207
ENCODING 135
SWIDTH 1 0
DWIDTH 12 0
BBX 12 21 0 0
BITMAP
0000
0000
0000
0000
0000
0000
0000
0000
0F00
1080
2040
2000
2000
2000
2040
1080
0F00
0400
0200
0C00
0000
ENDCHAR

STARTCHAR C210
ENCODING 136
SWIDTH 1 0
DWIDTH 12 0
BBX 12 21 0 0
BITMAP
0000
0000
0000
0200
0500
0880
1040
0000
1FC0
2020
2020
2020
3FC0
2000
2000
2020
1FC0
0000
0000
0000
0000
ENDCHAR

STARTCHAR C211
ENCODING 137
SWIDTH 1 0
DWIDTH 12 0
BBX 12 21 0 0
BITMAP
0000
0000
0000
0000
0000
1080
0000
0000
1FC0
2020
2020
2020
3FC0
2000
2000
2020
1FC0
0000
0000
0000
0000
ENDCHAR

STARTCHAR C212
ENCODING 138
SWIDTH 1 0
DWIDTH 12 0
BBX 12 21 0 0
BITMAP
0000
0000
0000
0C00
0400
0200
0000
0000
1FC0
2020
2020
2020
3FC0
2000
2000
2020
1FC0
0000
0000
0000
0000
ENDCHAR

STARTCHAR C213
ENCODING 139
SWIDTH 1 0
DWIDTH 12 0
BBX 12 21 0 0
BITMAP
0000
0000
0000
0000
0000
0000
1080
0000
0600
0200
0200
0200
0200
0200
0200
0200
0700
0000
0000
0000
0000
ENDCHAR

STARTCHAR C214
ENCODING 140
SWIDTH 1 0
DWIDTH 12 0
BBX 12 21 0 0
BITMAP
0000
0000
0000
0200
0500
0880
1040
0000
0600
0200
0200
0200
0200
0200
0200
0200
0700
0000
0000
0000
0000
ENDCHAR

STARTCHAR C215
ENCODING 141
SWIDTH 1 0
DWIDTH 12 0
BBX 12 21 0 0
BITMAP
0000
0000
0000
0C00
0400
0200
0000
0000
0600
0200
0200
0200
0200
0200
0200
0200
0700
0000
0000
0000
0000
ENDCHAR

STARTCHAR C216
ENCODING 142
SWIDTH 1 0
DWIDTH 12 0
BBX 12 21 0 0
BITMAP
0000
0880
0000
0200
0500
0880
1040
2020
2020
2020
2020
3FE0
2020
2020
2020
2020
7070
0000
0000
0000
0000
ENDCHAR

STARTCHAR C217
ENCODING 143
SWIDTH 1 0
DWIDTH 12 0
BBX 12 21 0 0
BITMAP
0200
0500
0200
0200
0500
0880
1040
2020
2020
2020
2020
3FE0
2020
2020
2020
2020
7070
0000
0000
0000
0000
ENDCHAR

STARTCHAR C220
ENCODING 144
SWIDTH 1 0
DWIDTH 12 0
BBX 12 21 0 0
BITMAP
0300
0200
0400
3FE0
1020
1000
1000
1000
1080
1F80
1080
1000
1000
1000
1000
1020
3FE0
0000
0000
0000
0000
ENDCHAR

STARTCHAR C221
ENCODING 145
SWIDTH 1 0
DWIDTH 12 0
BBX 12 21 0 0
BITMAP
0000
0000
0000
0000
0000
0000
3BC0
4620
4620
0620
0620
3FC0
4600
4600
4600
4520
3CC0
0000
0000
0000
0000
ENDCHAR

STARTCHAR C222
ENCODING 146
SWIDTH 1 0
DWIDTH 12 0
BBX 12 21 0 0
BITMAP
0000
0000
0000
0FE0
0920
1100
1100
2100
2140
7FC0
4140
4100
4100
4100
4100
4120
E1E0
0000
0000
0000
0000
ENDCHAR

STARTCHAR C223
ENCODING 147
SWIDTH 1 0
DWIDTH 12 0
BBX 12 21 0 0
BITMAP
0000
0000
0000
0200
0500
0880
1040
0000
0F80
1040
2020
2020
2020
2020
2020
1040
0F80
0000
0000
0000
0000
ENDCHAR

STARTCHAR C224
ENCODING 148
SWIDTH 1 0
DWIDTH 12 0
BBX 12 21 0 0
BITMAP
0000
0000
0000
0000
0000
0880
0000
0000
0F80
1040
2020
2020
2020
2020
2020
1040
0F80
0000
0000
0000
0000
ENDCHAR

STARTCHAR C225
ENCODING 149
SWIDTH 1 0
DWIDTH 12 0
BBX 12 21 0 0
BITMAP
0000
0000
0000
0C00
0400
0200
0000
0000
0F80
1040
2020
2020
2020
2020
2020
1040
0F80
0000
0000
0000
0000
ENDCHAR

STARTCHAR C226
ENCODING 150
SWIDTH 1 0
DWIDTH 12 0
BBX 12 21 0 0
BITMAP
0000
0000
0000
0400
0A00
1100
2080
0000
6180
2080
2080
2080
2080
2080
2080
20C0
1FC0
0000
0000
0000
0000
ENDCHAR

STARTCHAR C227
ENCODING 151
SWIDTH 1 0
DWIDTH 12 0
BBX 12 21 0 0
BITMAP
0000
0000
0000
0C00
0400
0200
0000
0000
6180
2080
2080
2080
2080
2080
2080
20C0
1FC0
0000
0000
0000
0000
ENDCHAR

STARTCHAR C230
ENCODING 152
SWIDTH 1 0
DWIDTH 12 0
BBX 12 21 0 0
BITMAP
0000
0000
0000
0000
0000
1080
0000
0000
60C0
2040
2040
2040
2040
20C0
1F40
0040
0040
0040
2040
1F80
0000
ENDCHAR

STARTCHAR C231
ENCODING 153
SWIDTH 1 0
DWIDTH 12 0
BBX 12 21 0 0
BITMAP
0000
1080
0000
1F80
2040
4020
4020
4020
4020
4020
4020
4020
4020
4020
4020
2040
1F80
0000
0000
0000
0000
ENDCHAR

STARTCHAR C232
ENCODING 154
SWIDTH 1 0
DWIDTH 12 0
BBX 12 21 0 0
BITMAP
0000
1080
0000
70E0
2040
2040
2040
2040
2040
2040
2040
2040
2040
2040
2040
1080
0F00
0000
0000
0000
0000
ENDCHAR

STARTCHAR C233
ENCODING 155
SWIDTH 1 0
DWIDTH 12 0
BBX 12 21 0 0
BITMAP
0000
0000
0000
0400
0400
1F00
2080
4040
4000
4000
4000
4040
2080
1F00
0400
0400
0000
0000
0000
0000
0000
ENDCHAR

STARTCHAR C234
ENCODING 156
SWIDTH 1 0
DWIDTH 12 0
BBX 12 21 0 0
BITMAP
0000
0000
0300
0480
0840
0840
0800
0800
3E00
0800
0800
0800
0800
0800
3C60
4A40
3980
0000
0000
0000
0000
ENDCHAR

STARTCHAR C235
ENCODING 157
SWIDTH 1 0
DWIDTH 12 0
BBX 12 21 0 0
BITMAP
0000
0000
0000
4010
2020
1040
0880
0500
0200
0200
3FE0
0200
0200
1FC0
0200
0200
0200
0000
0000
0000
0000
ENDCHAR

STARTCHAR C236
ENCODING 158
SWIDTH 1 0
DWIDTH 12 0
BBX 12 21 0 0
BITMAP
0000
0000
7F80
2040
2040
2040
2040
2040
3F80
2000
2040
2040
20E0
2040
2040
2040
7060
0000
0000
0000
0000
ENDCHAR

STARTCHAR C237
ENCODING 159
SWIDTH 1 0
DWIDTH 12 0
BBX 12 21 0 0
BITMAP
0000
0000
0180
0240
0420
0400
0400
0400
0400
3F80
0400
0400
0400
0400
0400
0400
0400
4400
2800
1000
0000
ENDCHAR

STARTCHAR C240
ENCODING 160
SWIDTH 1 0
DWIDTH 12 0
BBX 12 21 0 0
BITMAP
0000
0000
0000
0300
0200
0400
0000
0000
1F80
2040
0040
1FC0
2040
2040
2040
20C0
1F60
0000
0000
0000
0000
ENDCHAR

STARTCHAR C240
ENCODING 161
SWIDTH 1 0
DWIDTH 12 0
BBX 12 21 0 0
BITMAP
0000
0000
0000
0300
0200
0400
0000
0000
0600
0200
0200
0200
0200
0200
0200
0200
0700
0000
0000
0000
0000
ENDCHAR

STARTCHAR C241
ENCODING 162
SWIDTH 1 0
DWIDTH 12 0
BBX 12 21 0 0
BITMAP
0000
0000
0000
0300
0200
0400
0000
0000
0F80
1040
2020
2020
2020
2020
2020
1040
0F80
0000
0000
0000
0000
ENDCHAR

STARTCHAR C242
ENCODING 163
SWIDTH 1 0
DWIDTH 12 0
BBX 12 21 0 0
BITMAP
0000
0000
0000
0600
0400
0800
0000
0000
6180
2080
2080
2080
2080
2080
2080
20C0
1FC0
0000
0000
0000
0000
ENDCHAR

STARTCHAR C243
ENCODING 164
SWIDTH 1 0
DWIDTH 12 0
BBX 12 21 0 0
BITMAP
0000
0000
0000
0C20
1240
2180
0000
0000
2F80
1040
1040
1040
1040
1040
1040
1040
30C0
0000
0000
0000
0000
ENDCHAR

STARTCHAR C244
ENCODING 165
SWIDTH 1 0
DWIDTH 12 0
BBX 12 21 0 0
BITMAP
0C20
1240
2180
C070
6020
6020
5020
4820
4820
4420
4220
4120
4120
40A0
4060
4060
E020
0000
0000
0000
0000
ENDCHAR

STARTCHAR C245
ENCODING 166
SWIDTH 1 0
DWIDTH 12 0
BBX 12 21 0 0
BITMAP
0000
0000
0000
0000
0000
0000
0000
0000
1F80
2040
0040
1FC0
2040
2040
2040
20C0
1F60
0000
3FC0
0000
0000
ENDCHAR

STARTCHAR C246
ENCODING 167
SWIDTH 1 0
DWIDTH 12 0
BBX 12 21 0 0
BITMAP
0000
0000
0000
0000
0000
0000
0000
0000
0F80
1040
2020
2020
2020
2020
2020
1040
0F80
0000
3FE0
0000
0000
ENDCHAR

STARTCHAR C247
ENCODING 168
SWIDTH 1 0
DWIDTH 12 0
BBX 12 21 0 0
BITMAP
0000
0000
0000
0200
0200
0200
0000
0000
0200
0200
0200
1C00
2020
2020
2020
2040
1F80
0000
0000
0000
0000
ENDCHAR

STARTCHAR C250
ENCODING 169
SWIDTH 1 0
DWIDTH 12 0
BBX 12 21 0 0
BITMAP
0000
0000
0000
0000
0000
0000
0000
0000
0000
3FE0
2000
2000
2000
2000
2000
0000
0000
0000
0000
0000
0000
ENDCHAR

STARTCHAR C251
ENCODING 170
SWIDTH 1 0
DWIDTH 12 0
BBX 12 21 0 0
BITMAP
0000
0000
0000
0000
0000
0000
0000
0000
0000
3FE0
0020
0020
0020
0020
0020
0000
0000
0000
0000
0000
0000
ENDCHAR

STARTCHAR C252
ENCODING 171
SWIDTH 1 0
DWIDTH 12 0
BBX 12 21 0 0
BITMAP
0000
0000
1000
3000
5000
1020
1040
1080
1100
0200
04C0
0920
1220
2020
4040
0080
0100
03E0
0000
0000
0000
ENDCHAR

STARTCHAR C253
ENCODING 172
SWIDTH 1 0
DWIDTH 12 0
BBX 12 21 0 0
BITMAP
0000
0000
1000
3000
5000
1020
1040
1080
1100
0240
04C0
0940
1240
27E0
4040
0040
0040
0000
0000
0000
0000
ENDCHAR

STARTCHAR C254
ENCODING 173
SWIDTH 1 0
DWIDTH 12 0
BBX 12 21 0 0
BITMAP
0000
0000
0000
0200
0200
0200
0000
0000
0200
0200
0200
0200
0200
0700
0700
0700
0200
0000
0000
0000
0000
ENDCHAR

STARTCHAR C255
ENCODING 174
SWIDTH 1 0
DWIDTH 12 0
BBX 12 21 0 0
BITMAP
0000
0000
0000
0000
0000
0220
0440
0880
1100
2200
4400
2200
1100
0880
0440
0220
0000
0000
0000
0000
0000
ENDCHAR

STARTCHAR C256
ENCODING 175
SWIDTH 1 0
DWIDTH 12 0
BBX 12 21 0 0
BITMAP
0000
0000
0000
0000
0000
4400
2200
1100
0880
0440
0220
0440
0880
1100
2200
4400
0000
0000
0000
0000
0000
ENDCHAR

STARTCHAR C257
ENCODING 176
SWIDTH 1 0
DWIDTH 12 0
BBX 12 21 0 0
BITMAP
AAA0
0000
AAA0
0000
AAA0
0000
AAA0
0000
AAA0
0000
AAA0
0000
AAA0
0000
AAA0
0000
AAA0
0000
AAA0
0000
AAA0
ENDCHAR

STARTCHAR C260
ENCODING 177
SWIDTH 1 0
DWIDTH 12 0
BBX 12 21 0 0
BITMAP
AAA0
5550
AAA0
5550
AAA0
5550
AAA0
5550
AAA0
5550
AAA0
5550
AAA0
5550
AAA0
5550
AAA0
5550
AAA0
5550
AAA0
ENDCHAR

STARTCHAR C261
ENCODING 178
SWIDTH 1 0
DWIDTH 12 0
BBX 12 21 0 0
BITMAP
5550
FFF0
5550
FFF0
5550
FFF0
5550
FFF0
5550
FFF0
5550
FFF0
5550
FFF0
5550
FFF0
5550
FFF0
5550
FFF0
5550
ENDCHAR

STARTCHAR C262
ENCODING 179
SWIDTH 1 0
DWIDTH 12 0
BBX 12 21 0 0
BITMAP
0600
0600
0600
0600
0600
0600
0600
0600
0600
0600
0600
0600
0600
0600
0600
0600
0600
0600
0600
0600
0600
ENDCHAR

STARTCHAR C263
ENCODING 180
SWIDTH 1 0
DWIDTH 12 0
BBX 12 21 0 0
BITMAP
0600
0600
0600
0600
0600
0600
0600
0600
0600
0600
FE00
FE00
0600
0600
0600
0600
0600
0600
0600
0600
0600
ENDCHAR

STARTCHAR C264
ENCODING 181
SWIDTH 1 0
DWIDTH 12 0
BBX 12 21 0 0
BITMAP
0600
0600
0600
0600
0600
0600
0600
FE00
FE00
0600
0600
0600
FE00
FE00
0600
0600
0600
0600
0600
0600
0600
ENDCHAR

STARTCHAR C265
ENCODING 182
SWIDTH 1 0
DWIDTH 12 0
BBX 12 21 0 0
BITMAP
1980
1980
1980
1980
1980
1980
1980
1980
1980
1980
F980
F980
1980
1980
1980
1980
1980
1980
1980
1980
1980
ENDCHAR

STARTCHAR C266
ENCODING 183
SWIDTH 1 0
DWIDTH 12 0
BBX 12 21 0 0
BITMAP
0000
0000
0000
0000
0000
0000
0000
0000
0000
0000
FF80
FF80
1980
1980
1980
1980
1980
1980
1980
1980
1980
ENDCHAR

STARTCHAR C267
ENCODING 184
SWIDTH 1 0
DWIDTH 12 0
BBX 12 21 0 0
BITMAP
0000
0000
0000
0000
0000
0000
0000
FE00
FE00
0600
0600
0600
FE00
FE00
0600
0600
0600
0600
0600
0600
0600
ENDCHAR

STARTCHAR C270
ENCODING 185
SWIDTH 1 0
DWIDTH 12 0
BBX 12 21 0 0
BITMAP
1980
1980
1980
1980
1980
1980
1980
F980
F980
0180
0180
0180
F980
F980
1980
1980
1980
1980
1980
1980
1980
ENDCHAR

STARTCHAR C271
ENCODING 186
SWIDTH 1 0
DWIDTH 12 0
BBX 12 21 0 0
BITMAP
1980
1980
1980
1980
1980
1980
1980
1980
1980
1980
1980
1980
1980
1980
1980
1980
1980
1980
1980
1980
1980
ENDCHAR

STARTCHAR C272
ENCODING 187
SWIDTH 1 0
DWIDTH 12 0
BBX 12 21 0 0
BITMAP
0000
0000
0000
0000
0000
0000
0000
FF80
FF80
0180
0180
0180
F980
F980
1980
1980
1980
1980
1980
1980
1980
ENDCHAR

STARTCHAR C273
ENCODING 188
SWIDTH 1 0
DWIDTH 12 0
BBX 12 21 0 0
BITMAP
1980
1980
1980
1980
1980
1980
1980
F980
F980
0180
0180
0180
FF80
FF80
0000
0000
0000
0000
0000
0000
0000
ENDCHAR

STARTCHAR C274
ENCODING 189
SWIDTH 1 0
DWIDTH 12 0
BBX 12 21 0 0
BITMAP
1980
1980
1980
1980
1980
1980
1980
1980
1980
1980
FF80
FF80
0000
0000
0000
0000
0000
0000
0000
0000
0000
ENDCHAR

STARTCHAR C275
ENCODING 190
SWIDTH 1 0
DWIDTH 12 0
BBX 12 21 0 0
BITMAP
0600
0600
0600
0600
0600
0600
0600
FE00
FE00
0600
0600
0600
FE00
FE00
0000
0000
0000
0000
0000
0000
0000
ENDCHAR

STARTCHAR C276
ENCODING 191
SWIDTH 1 0
DWIDTH 12 0
BBX 12 21 0 0
BITMAP
0000
0000
0000
0000
0000
0000
0000
0000
0000
0000
FE00
FE00
0600
0600
0600
0600
0600
0600
0600
0600
0600
ENDCHAR

STARTCHAR C277
ENCODING 192
SWIDTH 1 0
DWIDTH 12 0
BBX 12 21 0 0
BITMAP
0600
0600
0600
0600
0600
0600
0600
0600
0600
0600
07F0
07F0
0000
0000
0000
0000
0000
0000
0000
0000
0000
ENDCHAR

STARTCHAR C300
ENCODING 193
SWIDTH 1 0
DWIDTH 12 0
BBX 12 21 0 0
BITMAP
0600
0600
0600
0600
0600
0600
0600
0600
0600
0600
FFF0
FFF0
0000
0000
0000
0000
0000
0000
0000
0000
0000
ENDCHAR

STARTCHAR C301
ENCODING 194
SWIDTH 1 0
DWIDTH 12 0
BBX 12 21 0 0
BITMAP
0000
0000
0000
0000
0000
0000
0000
0000
0000
0000
FFF0
FFF0
0600
0600
0600
0600
0600
0600
0600
0600
0600
ENDCHAR

STARTCHAR C302
ENCODING 195
SWIDTH 1 0
DWIDTH 12 0
BBX 12 21 0 0
BITMAP
0600
0600
0600
0600
0600
0600
0600
0600
0600
0600
07F0
07F0
0600
0600
0600
0600
0600
0600
0600
0600
0600
ENDCHAR

STARTCHAR C303
ENCODING 196
SWIDTH 1 0
DWIDTH 12 0
BBX 12 21 0 0
BITMAP
0000
0000
0000
0000
0000
0000
0000
0000
0000
0000
FFF0
FFF0
0000
0000
0000
0000
0000
0000
0000
0000
0000
ENDCHAR

STARTCHAR C304
ENCODING 197
SWIDTH 1 0
DWIDTH 12 0
BBX 12 21 0 0
BITMAP
0600
0600
0600
0600
0600
0600
0600
0600
0600
0600
FFF0
FFF0
0600
0600
0600
0600
0600
0600
0600
0600
0600
ENDCHAR

STARTCHAR C305
ENCODING 198
SWIDTH 1 0
DWIDTH 12 0
BBX 12 21 0 0
BITMAP
0600
0600
0600
0600
0600
0600
0600
07F0
07F0
0600
0600
0600
07F0
07F0
0600
0600
0600
0600
0600
0600
0600
ENDCHAR

STARTCHAR C306
ENCODING 199
SWIDTH 1 0
DWIDTH 12 0
BBX 12 21 0 0
BITMAP
1980
1980
1980
1980
1980
1980
1980
1980
1980
1980
19F0
19F0
1980
1980
1980
1980
1980
1980
1980
1980
1980
ENDCHAR

STARTCHAR C307
ENCODING 200
SWIDTH 1 0
DWIDTH 12 0
BBX 12 21 0 0
BITMAP
1980
1980
1980
1980
1980
1980
1980
19F0
19F0
1800
1800
1800
1FF0
1FF0
0000
0000
0000
0000
0000
0000
0000
ENDCHAR

STARTCHAR C310
ENCODING 201
SWIDTH 1 0
DWIDTH 12 0
BBX 12 21 0 0
BITMAP
0000
0000
0000
0000
0000
0000
0000
1FF0
1FF0
1800
1800
1800
19F0
19F0
1980
1980
1980
1980
1980
1980
1980
ENDCHAR

STARTCHAR C311
ENCODING 202
SWIDTH 1 0
DWIDTH 12 0
BBX 12 21 0 0
BITMAP
1980
1980
1980
1980
1980
1980
1980
F9F0
F9F0
0000
0000
0000
FFF0
FFF0
0000
0000
0000
0000
0000
0000
0000
ENDCHAR

STARTCHAR C312
ENCODING 203
SWIDTH 1 0
DWIDTH 12 0
BBX 12 21 0 0
BITMAP
0000
0000
0000
0000
0000
0000
0000
FFF0
FFF0
0000
0000
0000
F9F0
F9F0
1980
1980
1980
1980
1980
1980
1980
ENDCHAR

STARTCHAR C313
ENCODING 204
SWIDTH 1 0
DWIDTH 12 0
BBX 12 21 0 0
BITMAP
1980
1980
1980
1980
1980
1980
1980
19F0
19F0
1800
1800
1800
19F0
19F0
1980
1980
1980
1980
1980
1980
1980
ENDCHAR

STARTCHAR C314
ENCODING 205
SWIDTH 1 0
DWIDTH 12 0
BBX 12 21 0 0
BITMAP
0000
0000
0000
0000
0000
0000
0000
FFF0
FFF0
0000
0000
0000
FFF0
FFF0
0000
0000
0000
0000
0000
0000
0000
ENDCHAR

STARTCHAR C315
ENCODING 206
SWIDTH 1 0
DWIDTH 12 0
BBX 12 21 0 0
BITMAP
1980
1980
1980
1980
1980
1980
1980
F9F0
F9F0
0000
0000
0000
F9F0
F9F0
1980
1980
1980
1980
1980
1980
1980
ENDCHAR

STARTCHAR C316
ENCODING 207
SWIDTH 1 0
DWIDTH 12 0
BBX 12 21 0 0
BITMAP
0600
0600
0600
0600
0600
0600
0600
FFF0
FFF0
0000
0000
0000
FFF0
FFF0
0000
0000
0000
0000
0000
0000
0000
ENDCHAR

STARTCHAR C317
ENCODING 208
SWIDTH 1 0
DWIDTH 12 0
BBX 12 21 0 0
BITMAP
1980
1980
1980
1980
1980
1980
1980
1980
1980
1980
FFF0
FFF0
0000
0000
0000
0000
0000
0000
0000
0000
0000
ENDCHAR

STARTCHAR C320
ENCODING 209
SWIDTH 1 0
DWIDTH 12 0
BBX 12 21 0 0
BITMAP
0000
0000
0000
0000
0000
0000
0000
FFF0
FFF0
0000
0000
0000
FFF0
FFF0
0600
0600
0600
0600
0600
0600
0600
ENDCHAR

STARTCHAR C321
ENCODING 210
SWIDTH 1 0
DWIDTH 12 0
BBX 12 21 0 0
BITMAP
0000
0000
0000
0000
0000
0000
0000
0000
0000
0000
FFF0
FFF0
1980
1980
1980
1980
1980
1980
1980
1980
1980
ENDCHAR

STARTCHAR C322
ENCODING 211
SWIDTH 1 0
DWIDTH 12 0
BBX 12 21 0 0
BITMAP
1980
1980
1980
1980
1980
1980
1980
1980
1980
1980
1FF0
1FF0
0000
0000
0000
0000
0000
0000
0000
0000
0000
ENDCHAR

STARTCHAR C323
ENCODING 212
SWIDTH 1 0
DWIDTH 12 0
BBX 12 21 0 0
BITMAP
0600
0600
0600
0600
0600
0600
0600
07F0
07F0
0600
0600
0600
07F0
07F0
0000
0000
0000
0000
0000
0000
0000
ENDCHAR

STARTCHAR C324
ENCODING 213
SWIDTH 1 0
DWIDTH 12 0
BBX 12 21 0 0
BITMAP
0000
0000
0000
0000
0000
0000
0000
07F0
07F0
0600
0600
0600
07F0
07F0
0600
0600
0600
0600
0600
0600
0600
ENDCHAR

STARTCHAR C325
ENCODING 214
SWIDTH 1 0
DWIDTH 12 0
BBX 12 21 0 0
BITMAP
0000
0000
0000
0000
0000
0000
0000
0000
0000
0000
1FF0
1FF0
1980
1980
1980
1980
1980
1980
1980
1980
1980
ENDCHAR

STARTCHAR C326
ENCODING 215
SWIDTH 1 0
DWIDTH 12 0
BBX 12 21 0 0
BITMAP
1980
1980
1980
1980
1980
1980
1980
1980
1980
1980
FFF0
FFF0
1980
1980
1980
1980
1980
1980
1980
1980
1980
ENDCHAR

STARTCHAR C327
ENCODING 216
SWIDTH 1 0
DWIDTH 12 0
BBX 12 21 0 0
BITMAP
0600
0600
0600
0600
0600
0600
0600
FFF0
FFF0
0600
0600
0600
FFF0
FFF0
0600
0600
0600
0600
0600
0600
0600
ENDCHAR

STARTCHAR C330
ENCODING 217
SWIDTH 1 0
DWIDTH 12 0
BBX 12 21 0 0
BITMAP
0600
0600
0600
0600
0600
0600
0600
0600
0600
0600
FE00
FE00
0000
0000
0000
0000
0000
0000
0000
0000
0000
ENDCHAR

STARTCHAR C331
ENCODING 218
SWIDTH 1 0
DWIDTH 12 0
BBX 12 21 0 0
BITMAP
0000
0000
0000
0000
0000
0000
0000
0000
0000
0000
07F0
07F0
0600
0600
0600
0600
0600
0600
0600
0600
0600
ENDCHAR

STARTCHAR C332
ENCODING 219
SWIDTH 1 0
DWIDTH 12 0
BBX 12 21 0 0
BITMAP
FFF0
FFF0
FFF0
FFF0
FFF0
FFF0
FFF0
FFF0
FFF0
FFF0
FFF0
FFF0
FFF0
FFF0
FFF0
FFF0
FFF0
FFF0
FFF0
FFF0
FFF0
ENDCHAR

STARTCHAR C333
ENCODING 220
SWIDTH 1 0
DWIDTH 12 0
BBX 12 21 0 0
BITMAP
0000
0000
0000
0000
0000
0000
0000
0000
0000
0000
0000
FFF0
FFF0
FFF0
FFF0
FFF0
FFF0
FFF0
FFF0
FFF0
FFF0
ENDCHAR

STARTCHAR C334
ENCODING 221
SWIDTH 1 0
DWIDTH 12 0
BBX 12 21 0 0
BITMAP
FC00
FC00
FC00
FC00
FC00
FC00
FC00
FC00
FC00
FC00
FC00
FC00
FC00
FC00
FC00
FC00
FC00
FC00
FC00
FC00
FC00
ENDCHAR

STARTCHAR C335
ENCODING 222
SWIDTH 1 0
DWIDTH 12 0
BBX 12 21 0 0
BITMAP
03F0
03F0
03F0
03F0
03F0
03F0
03F0
03F0
03F0
03F0
03F0
03F0
03F0
03F0
03F0
03F0
03F0
03F0
03F0
03F0
03F0
ENDCHAR

STARTCHAR C336
ENCODING 223
SWIDTH 1 0
DWIDTH 12 0
BBX 12 21 0 0
BITMAP
FFF0
FFF0
FFF0
FFF0
FFF0
FFF0
FFF0
FFF0
FFF0
FFF0
FFF0
0000
0000
0000
0000
0000
0000
0000
0000
0000
0000
ENDCHAR

STARTCHAR C337
ENCODING 224
SWIDTH 1 0
DWIDTH 12 0
BBX 12 21 0 0
BITMAP
0000
0000
0000
0000
0000
0000
0000
0000
1820
2440
4280
4280
4100
4280
4280
2440
1820
0000
0000
0000
0000
ENDCHAR

STARTCHAR C340
ENCODING 225
SWIDTH 1 0
DWIDTH 12 0
BBX 12 21 0 0
BITMAP
0000
0000
0000
0000
0000
0000
1F80
1040
1040
1040
1FC0
1020
1020
1020
1FC0
1000
1000
1000
1000
0000
0000
ENDCHAR

STARTCHAR C341
ENCODING 226
SWIDTH 1 0
DWIDTH 12 0
BBX 12 21 0 0
BITMAP
0000
0000
0000
3FE0
2020
2020
2020
2020
2000
2000
2000
2000
2000
2000
2000
2000
2000
0000
0000
0000
0000
ENDCHAR

STARTCHAR C342
ENCODING 227
SWIDTH 1 0
DWIDTH 12 0
BBX 12 21 0 0
BITMAP
0000
0000
0000
0000
0000
0000
3FE0
0880
0880
0880
0880
0880
0880
0880
0880
0880
0880
0000
0000
0000
0000
ENDCHAR

STARTCHAR C343
ENCODING 228
SWIDTH 1 0
DWIDTH 12 0
BBX 12 21 0 0
BITMAP
0000
0000
0000
7FE0
4020
2020
1000
0800
0400
0200
0200
0400
0800
1000
2020
4020
7FE0
0000
0000
0000
0000
ENDCHAR

STARTCHAR C344
ENCODING 229
SWIDTH 1 0
DWIDTH 12 0
BBX 12 21 0 0
BITMAP
0000
0000
0000
0000
0000
0000
0000
0000
0FC0
1100
2100
2100
2100
2100
2100
1200
0C00
0000
0000
0000
0000
ENDCHAR

STARTCHAR C345
ENCODING 230
SWIDTH 1 0
DWIDTH 12 0
BBX 12 21 0 0
BITMAP
0000
0000
0000
0000
0000
0000
0820
0820
0820
0820
0820
0820
0C40
0B80
0800
0800
4800
3000
0000
0000
0000
ENDCHAR

STARTCHAR C346
ENCODING 231
SWIDTH 1 0
DWIDTH 12 0
BBX 12 21 0 0
BITMAP
0000
0000
0000
0000
0000
0000
1CE0
1300
2200
0200
0200
0200
0200
0200
0200
0200
0200
0000
0000
0000
0000
ENDCHAR

STARTCHAR C347
ENCODING 232
SWIDTH 1 0
DWIDTH 12 0
BBX 12 21 0 0
BITMAP
0000
0000
0000
1FC0
0200
0200
0700
0880
1040
1040
1040
1040
0880
0700
0200
0200
1FC0
0000
0000
0000
0000
ENDCHAR

STARTCHAR C350
ENCODING 233
SWIDTH 1 0
DWIDTH 12 0
BBX 12 21 0 0
BITMAP
0000
0000
0000
0700
0880
1040
2020
2020
2020
2020
3FE0
2020
2020
2020
1040
0880
0700
0000
0000
0000
0000
ENDCHAR

STARTCHAR C351
ENCODING 234
SWIDTH 1 0
DWIDTH 12 0
BBX 12 21 0 0
BITMAP
0000
0000
0000
0700
0880
1040
1040
1040
1040
1040
1040
0880
0880
0880
0880
4890
38E0
0000
0000
0000
0000
ENDCHAR

STARTCHAR C352
ENCODING 235
SWIDTH 1 0
DWIDTH 12 0
BBX 12 21 0 0
BITMAP
0000
0000
0000
0780
0840
0800
0400
0200
0100
0F00
1080
2040
2040
2040
2040
1080
0F00
0000
0000
0000
0000
ENDCHAR

STARTCHAR C353
ENCODING 236
SWIDTH 1 0
DWIDTH 12 0
BBX 12 21 0 0
BITMAP
0000
0000
0000
0000
0000
0000
0000
0000
1DC0
2220
2220
2220
2220
1DC0
0000
0000
0000
0000
0000
0000
0000
ENDCHAR

STARTCHAR C354
ENCODING 237
SWIDTH 1 0
DWIDTH 12 0
BBX 12 21 0 0
BITMAP
0000
0000
0000
0020
0040
0040
1F80
2140
4120
4220
4420
4820
2840
1F80
2000
2000
4000
0000
0000
0000
0000
ENDCHAR

STARTCHAR C355
ENCODING 238
SWIDTH 1 0
DWIDTH 12 0
BBX 12 21 0 0
BITMAP
0000
0000
0000
07C0
0800
1000
2000
4000
4000
7F80
4000
4000
4000
2000
1000
0800
07C0
0000
0000
0000
0000
ENDCHAR

STARTCHAR C356
ENCODING 239
SWIDTH 1 0
DWIDTH 12 0
BBX 12 21 0 0
BITMAP
0000
0000
0000
0000
0000
0F80
1040
2020
2020
2020
2020
2020
2020
2020
2020
2020
2020
0000
0000
0000
0000
ENDCHAR

STARTCHAR C357
ENCODING 240
SWIDTH 1 0
DWIDTH 12 0
BBX 12 21 0 0
BITMAP
0000
0000
0000
0000
0000
0000
3FF0
0000
0000
0000
3FF0
0000
0000
0000
3FF0
0000
0000
0000
0000
0000
0000
ENDCHAR

STARTCHAR C360
ENCODING 241
SWIDTH 1 0
DWIDTH 12 0
BBX 12 21 0 0
BITMAP
0000
0000
0000
0200
0200
0200
0200
0200
3FE0
0200
0200
0200
0200
0200
0000
3FE0
0000
0000
0000
0000
0000
ENDCHAR

STARTCHAR C361
ENCODING 242
SWIDTH 1 0
DWIDTH 12 0
BBX 12 21 0 0
BITMAP
0000
0000
0000
1000
0800
0400
0200
0100
0080
0100
0200
0400
0800
1000
0000
0000
3FC0
0000
0000
0000
0000
ENDCHAR

STARTCHAR C362
ENCODING 243
SWIDTH 1 0
DWIDTH 12 0
BBX 12 21 0 0
BITMAP
0000
0000
0000
0080
0100
0200
0400
0800
1000
0800
0400
0200
0100
0080
0000
0000
3FC0
0000
0000
0000
0000
ENDCHAR

STARTCHAR C363
ENCODING 244
SWIDTH 1 0
DWIDTH 12 0
BBX 12 21 0 0
BITMAP
0000
0000
0000
0080
0140
0220
0220
0220
0200
0200
0200
0200
0200
0200
0200
0200
0200
0200
0200
0200
0200
ENDCHAR

STARTCHAR C364
ENCODING 245
SWIDTH 1 0
DWIDTH 12 0
BBX 12 21 0 0
BITMAP
0200
0200
0200
0200
0200
0200
0200
0200
0200
0200
0200
0200
2200
2200
2200
1400
0800
0000
0000
0000
0000
ENDCHAR

STARTCHAR C365
ENCODING 246
SWIDTH 1 0
DWIDTH 12 0
BBX 12 21 0 0
BITMAP
0000
0000
0000
0000
0600
0600
0000
0000
0000
7FE0
0000
0000
0000
0600
0600
0000
0000
0000
0000
0000
0000
ENDCHAR

STARTCHAR C366
ENCODING 247
SWIDTH 1 0
DWIDTH 12 0
BBX 12 21 0 0
BITMAP
0000
0000
0000
0000
0000
1C20
2220
21C0
0000
0000
0000
1C20
2220
21C0
0000
0000
0000
0000
0000
0000
0000
ENDCHAR

STARTCHAR C367
ENCODING 248
SWIDTH 1 0
DWIDTH 12 0
BBX 12 21 0 0
BITMAP
0000
0000
1E00
2100
2100
2100
2100
1E00
0000
0000
0000
0000
0000
0000
0000
0000
0000
0000
0000
0000
0000
ENDCHAR

STARTCHAR C370
ENCODING 249
SWIDTH 1 0
DWIDTH 12 0
BBX 12 21 0 0
BITMAP
0000
0000
0000
0000
0000
0000
0000
0000
0600
0F00
0F00
0600
0000
0000
0000
0000
0000
0000
0000
0000
0000
ENDCHAR

STARTCHAR C371
ENCODING 250
SWIDTH 1 0
DWIDTH 12 0
BBX 12 21 0 0
BITMAP
0000
0000
0000
0000
0000
0000
0000
0000
0000
0000
0600
0600
0000
0000
0000
0000
0000
0000
0000
0000
0000
ENDCHAR

STARTCHAR C372
ENCODING 251
SWIDTH 1 0
DWIDTH 12 0
BBX 12 21 0 0
BITMAP
0000
0000
01E0
0100
0100
0100
0100
0100
0100
0100
0100
0100
2100
5100
0900
0500
0300
0000
0000
0000
0000
ENDCHAR

STARTCHAR C373
ENCODING 252
SWIDTH 1 0
DWIDTH 12 0
BBX 12 21 0 0
BITMAP
0000
0000
6E00
3100
2100
2100
2100
2100
2100
2100
6300
0000
0000
0000
0000
0000
0000
0000
0000
0000
0000
ENDCHAR

STARTCHAR C374
ENCODING 253
SWIDTH 1 0
DWIDTH 12 0
BBX 12 21 0 0
BITMAP
0000
0000
3E00
4100
4100
0200
0400
0800
1000
2100
7F00
0000
0000
0000
0000
0000
0000
0000
0000
0000
0000
ENDCHAR

STARTCHAR C375
ENCODING 254
SWIDTH 1 0
DWIDTH 12 0
BBX 12 21 0 0
BITMAP
0000
0000
0000
0000
0000
0000
1F80
1F80
1F80
1F80
1F80
1F80
1F80
1F80
1F80
0000
0000
0000
0000
0000
0000
ENDCHAR

STARTCHAR C377
ENCODING 255
SWIDTH 1 0
DWIDTH 12 0
BBX 12 21 0 0
BITMAP
0000
0000
0000
0000
0000
0000
0000
0000
0000
0000
0000
0000
0000
0000
0000
0000
0000
0000
0000
0000
0000
ENDCHAR
ENDFONT
